
<svg width="270" height="23" viewBox="0 0 254 22" fill="none" xmlns="http://www.w3.org/2000/svg">
<path d="M9.125 3.25C11.3583 3.25 13.2833 3.95833 14.9 5.375L12.825 7.55C12.2083 7.08333 11.6333 6.75 11.1 6.55C10.5833 6.33333 9.98333 6.225 9.3 6.225C8.01667 6.225 6.99167 6.73333 6.225 7.75C5.45833 8.75 5.075 10.275 5.075 12.325C5.075 14.5417 5.36667 16.1167 5.95 17.05C6.53333 17.9667 7.44167 18.425 8.675 18.425C9.54167 18.425 10.325 18.2333 11.025 17.85V13.925H8.775L8.375 11.025H15V19.6C14.1 20.1833 13.1083 20.6333 12.025 20.95C10.9417 21.2667 9.85833 21.425 8.775 21.425C6.14167 21.425 4.15833 20.6583 2.825 19.125C1.49167 17.575 0.825 15.3083 0.825 12.325C0.825 10.425 1.18333 8.79167 1.9 7.425C2.63333 6.05833 3.625 5.025 4.875 4.325C6.14167 3.60833 7.55833 3.25 9.125 3.25ZM28.8633 21H25.4383L25.2633 19.325C24.2966 20.725 22.9549 21.425 21.2383 21.425C20.0216 21.425 19.0966 21.0583 18.4633 20.325C17.8466 19.5917 17.5383 18.5667 17.5383 17.25V7.725H21.4883V16.75C21.4883 17.4 21.5883 17.8583 21.7883 18.125C22.0049 18.375 22.3299 18.5 22.7633 18.5C23.5966 18.5 24.3133 17.9833 24.9133 16.95V7.725H28.8633V21ZM35.9199 7.725V21H31.9699V7.725H35.9199ZM33.9199 0.724999C34.6033 0.724999 35.1616 0.941666 35.5949 1.375C36.0449 1.79167 36.2699 2.325 36.2699 2.975C36.2699 3.625 36.0449 4.16667 35.5949 4.6C35.1616 5.01667 34.6033 5.225 33.9199 5.225C33.2366 5.225 32.6783 5.01667 32.2449 4.6C31.8116 4.16667 31.5949 3.625 31.5949 2.975C31.5949 2.325 31.8116 1.79167 32.2449 1.375C32.6783 0.941666 33.2366 0.724999 33.9199 0.724999ZM42.5506 21.425C41.4006 21.425 40.5006 21.1 39.8506 20.45C39.2173 19.7833 38.9006 18.8417 38.9006 17.625V2.45L42.8506 2.025V17.475C42.8506 18.025 43.0756 18.3 43.5256 18.3C43.7589 18.3 43.9756 18.2583 44.1756 18.175L44.9506 20.975C44.2339 21.275 43.4339 21.425 42.5506 21.425ZM54.2225 7.3C55.3725 7.3 56.2725 7.65 56.9225 8.35C57.5725 9.05 57.8975 10.0333 57.8975 11.3V21H53.9475V11.975C53.9475 11.3083 53.8391 10.85 53.6225 10.6C53.4058 10.3333 53.0975 10.2 52.6975 10.2C51.8975 10.2 51.1308 10.7667 50.3975 11.9V21H46.4475V2.45L50.3975 2.05V9.15C50.9475 8.53333 51.5308 8.075 52.1475 7.775C52.7641 7.45833 53.4558 7.3 54.2225 7.3ZM72.4512 14.1C72.4512 14.65 72.4262 15.125 72.3762 15.525H64.1512C64.2845 16.6417 64.6012 17.425 65.1012 17.875C65.6012 18.325 66.2928 18.55 67.1762 18.55C67.7095 18.55 68.2262 18.4583 68.7262 18.275C69.2262 18.075 69.7678 17.775 70.3512 17.375L71.9762 19.575C70.4262 20.8083 68.7012 21.425 66.8012 21.425C64.6512 21.425 63.0012 20.7917 61.8512 19.525C60.7012 18.2583 60.1262 16.5583 60.1262 14.425C60.1262 13.075 60.3678 11.8667 60.8512 10.8C61.3345 9.71667 62.0428 8.86667 62.9762 8.25C63.9095 7.61667 65.0262 7.3 66.3262 7.3C68.2428 7.3 69.7428 7.9 70.8262 9.1C71.9095 10.3 72.4512 11.9667 72.4512 14.1ZM68.5762 12.975C68.5428 10.9417 67.8262 9.925 66.4262 9.925C65.7428 9.925 65.2095 10.175 64.8262 10.675C64.4595 11.175 64.2345 12 64.1512 13.15H68.5762V12.975ZM81.8701 7.35C82.3535 7.35 82.7951 7.40833 83.1951 7.525L82.5701 11.35C82.0701 11.2333 81.6701 11.175 81.3701 11.175C80.5868 11.175 79.9868 11.45 79.5701 12C79.1701 12.5333 78.8535 13.3417 78.6201 14.425V21H74.6701V7.725H78.1201L78.4451 10.3C78.7451 9.38333 79.1951 8.66667 79.7951 8.15C80.4118 7.61667 81.1035 7.35 81.8701 7.35ZM99.3793 7.3C100.429 7.3 101.271 7.65833 101.904 8.375C102.538 9.075 102.854 10.05 102.854 11.3V21H98.9043V11.975C98.9043 10.7917 98.5293 10.2 97.7793 10.2C97.3626 10.2 96.996 10.3417 96.6793 10.625C96.3626 10.9083 96.0543 11.3417 95.7543 11.925V21H91.8043V11.975C91.8043 10.7917 91.4293 10.2 90.6793 10.2C90.2793 10.2 89.9126 10.35 89.5793 10.65C89.2626 10.9333 88.9543 11.3583 88.6543 11.925V21H84.7043V7.725H88.1543L88.4293 9.275C88.946 8.60833 89.5126 8.11667 90.1293 7.8C90.7626 7.46667 91.4793 7.3 92.2793 7.3C93.0293 7.3 93.671 7.48333 94.2043 7.85C94.7543 8.21667 95.1543 8.73333 95.4043 9.4C95.9376 8.68333 96.521 8.15833 97.1543 7.825C97.8043 7.475 98.546 7.3 99.3793 7.3ZM117.397 14.1C117.397 14.65 117.372 15.125 117.322 15.525H109.097C109.231 16.6417 109.547 17.425 110.047 17.875C110.547 18.325 111.239 18.55 112.122 18.55C112.656 18.55 113.172 18.4583 113.672 18.275C114.172 18.075 114.714 17.775 115.297 17.375L116.922 19.575C115.372 20.8083 113.647 21.425 111.747 21.425C109.597 21.425 107.947 20.7917 106.797 19.525C105.647 18.2583 105.072 16.5583 105.072 14.425C105.072 13.075 105.314 11.8667 105.797 10.8C106.281 9.71667 106.989 8.86667 107.922 8.25C108.856 7.61667 109.972 7.3 111.272 7.3C113.189 7.3 114.689 7.9 115.772 9.1C116.856 10.3 117.397 11.9667 117.397 14.1ZM113.522 12.975C113.489 10.9417 112.772 9.925 111.372 9.925C110.689 9.925 110.156 10.175 109.772 10.675C109.406 11.175 109.181 12 109.097 13.15H113.522V12.975ZM131.324 14.375H129.724V21H125.624V3.675H131.299C133.666 3.675 135.441 4.10833 136.624 4.975C137.824 5.84167 138.424 7.16667 138.424 8.95C138.424 10.0667 138.157 11 137.624 11.75C137.091 12.4833 136.249 13.1083 135.099 13.625L139.499 21H134.874L131.324 14.375ZM129.724 11.55H131.449C132.366 11.55 133.049 11.3417 133.499 10.925C133.966 10.5083 134.199 9.85 134.199 8.95C134.199 8.11667 133.949 7.50833 133.449 7.125C132.966 6.74167 132.216 6.55 131.199 6.55H129.724V11.55ZM146.363 7.3C148.396 7.3 149.988 7.925 151.138 9.175C152.288 10.4083 152.863 12.1417 152.863 14.375C152.863 15.7917 152.596 17.0333 152.063 18.1C151.546 19.15 150.796 19.9667 149.813 20.55C148.846 21.1333 147.696 21.425 146.363 21.425C144.346 21.425 142.754 20.8083 141.588 19.575C140.438 18.325 139.863 16.5833 139.863 14.35C139.863 12.9333 140.121 11.7 140.638 10.65C141.171 9.58333 141.921 8.75833 142.888 8.175C143.871 7.59167 145.029 7.3 146.363 7.3ZM146.363 10.2C145.563 10.2 144.963 10.5417 144.563 11.225C144.163 11.8917 143.963 12.9333 143.963 14.35C143.963 15.8 144.154 16.8583 144.538 17.525C144.938 18.1917 145.546 18.525 146.363 18.525C147.163 18.525 147.763 18.1917 148.163 17.525C148.563 16.8417 148.763 15.7917 148.763 14.375C148.763 12.925 148.563 11.8667 148.163 11.2C147.779 10.5333 147.179 10.2 146.363 10.2ZM160.962 7.3C161.879 7.3 162.704 7.43333 163.437 7.7C164.17 7.96667 164.862 8.375 165.512 8.925L163.812 11.275C162.979 10.6417 162.137 10.325 161.287 10.325C160.404 10.325 159.737 10.65 159.287 11.3C158.837 11.95 158.612 13 158.612 14.45C158.612 15.85 158.837 16.8417 159.287 17.425C159.737 18.0083 160.387 18.3 161.237 18.3C161.687 18.3 162.095 18.2333 162.462 18.1C162.829 17.95 163.27 17.7167 163.787 17.4L165.512 19.85C164.195 20.9 162.704 21.425 161.037 21.425C159.687 21.425 158.52 21.1417 157.537 20.575C156.554 19.9917 155.795 19.1833 155.262 18.15C154.729 17.1 154.462 15.875 154.462 14.475C154.462 13.075 154.729 11.8333 155.262 10.75C155.795 9.66667 156.554 8.825 157.537 8.225C158.52 7.60833 159.662 7.3 160.962 7.3ZM174.95 7.3C176.1 7.3 177 7.65 177.65 8.35C178.3 9.05 178.625 10.0333 178.625 11.3V21H174.675V11.975C174.675 11.3083 174.567 10.85 174.35 10.6C174.133 10.3333 173.825 10.2 173.425 10.2C172.625 10.2 171.858 10.7667 171.125 11.9V21H167.175V2.45L171.125 2.05V9.15C171.675 8.53333 172.258 8.075 172.875 7.775C173.492 7.45833 174.183 7.3 174.95 7.3ZM192.154 17.15C192.154 17.65 192.22 18.0167 192.354 18.25C192.504 18.4833 192.737 18.6583 193.054 18.775L192.229 21.35C191.412 21.2833 190.745 21.1083 190.229 20.825C189.712 20.525 189.312 20.0583 189.029 19.425C188.162 20.7583 186.829 21.425 185.029 21.425C183.712 21.425 182.662 21.0417 181.879 20.275C181.095 19.5083 180.704 18.5083 180.704 17.275C180.704 15.825 181.237 14.7167 182.304 13.95C183.37 13.1833 184.912 12.8 186.929 12.8H188.279V12.225C188.279 11.4417 188.112 10.9083 187.779 10.625C187.445 10.325 186.862 10.175 186.029 10.175C185.595 10.175 185.07 10.2417 184.454 10.375C183.837 10.4917 183.204 10.6583 182.554 10.875L181.654 8.275C182.487 7.95833 183.337 7.71667 184.204 7.55C185.087 7.38333 185.904 7.3 186.654 7.3C188.554 7.3 189.945 7.69167 190.829 8.475C191.712 9.25833 192.154 10.4333 192.154 12V17.15ZM186.179 18.6C187.079 18.6 187.779 18.175 188.279 17.325V14.975H187.304C186.404 14.975 185.729 15.1333 185.279 15.45C184.845 15.7667 184.629 16.2583 184.629 16.925C184.629 17.4583 184.762 17.875 185.029 18.175C185.312 18.4583 185.695 18.6 186.179 18.6ZM205.408 3.675V17.75H212.158L211.733 21H201.308V3.675H205.408ZM218 7.725V21H214.05V7.725H218ZM216 0.724999C216.683 0.724999 217.242 0.941666 217.675 1.375C218.125 1.79167 218.35 2.325 218.35 2.975C218.35 3.625 218.125 4.16667 217.675 4.6C217.242 5.01667 216.683 5.225 216 5.225C215.317 5.225 214.758 5.01667 214.325 4.6C213.892 4.16667 213.675 3.625 213.675 2.975C213.675 2.325 213.892 1.79167 214.325 1.375C214.758 0.941666 215.317 0.724999 216 0.724999ZM235.781 7.3C236.831 7.3 237.672 7.65833 238.306 8.375C238.939 9.075 239.256 10.05 239.256 11.3V21H235.306V11.975C235.306 10.7917 234.931 10.2 234.181 10.2C233.764 10.2 233.397 10.3417 233.081 10.625C232.764 10.9083 232.456 11.3417 232.156 11.925V21H228.206V11.975C228.206 10.7917 227.831 10.2 227.081 10.2C226.681 10.2 226.314 10.35 225.981 10.65C225.664 10.9333 225.356 11.3583 225.056 11.925V21H221.106V7.725H224.556L224.831 9.275C225.347 8.60833 225.914 8.11667 226.531 7.8C227.164 7.46667 227.881 7.3 228.681 7.3C229.431 7.3 230.072 7.48333 230.606 7.85C231.156 8.21667 231.556 8.73333 231.806 9.4C232.339 8.68333 232.922 8.15833 233.556 7.825C234.206 7.475 234.947 7.3 235.781 7.3ZM252.774 17.15C252.774 17.65 252.84 18.0167 252.974 18.25C253.124 18.4833 253.357 18.6583 253.674 18.775L252.849 21.35C252.032 21.2833 251.365 21.1083 250.849 20.825C250.332 20.525 249.932 20.0583 249.649 19.425C248.782 20.7583 247.449 21.425 245.649 21.425C244.332 21.425 243.282 21.0417 242.499 20.275C241.715 19.5083 241.324 18.5083 241.324 17.275C241.324 15.825 241.857 14.7167 242.924 13.95C243.99 13.1833 245.532 12.8 247.549 12.8H248.899V12.225C248.899 11.4417 248.732 10.9083 248.399 10.625C248.065 10.325 247.482 10.175 246.649 10.175C246.215 10.175 245.69 10.2417 245.074 10.375C244.457 10.4917 243.824 10.6583 243.174 10.875L242.274 8.275C243.107 7.95833 243.957 7.71667 244.824 7.55C245.707 7.38333 246.524 7.3 247.274 7.3C249.174 7.3 250.565 7.69167 251.449 8.475C252.332 9.25833 252.774 10.4333 252.774 12V17.15ZM246.799 18.6C247.699 18.6 248.399 18.175 248.899 17.325V14.975H247.924C247.024 14.975 246.349 15.1333 245.899 15.45C245.465 15.7667 245.249 16.2583 245.249 16.925C245.249 17.4583 245.382 17.875 245.649 18.175C245.932 18.4583 246.315 18.6 246.799 18.6Z" fill="black"/>
</svg>
